<svg xmlns="http://www.w3.org/2000/svg" xmlns:xlink="http://www.w3.org/1999/xlink" contentStyleType="text/css" data-diagram-type="CLASS" height="405px" preserveAspectRatio="none" style="width:857px;height:405px;background:#FFFFFF;" version="1.1" viewBox="0 0 857 405" width="857px" zoomAndPan="magnify"><title>Library - ER Diagram</title><defs/><g><g class="title" data-source-line="1"><text fill="#000000" font-family="sans-serif" font-size="14" font-weight="bold" lengthAdjust="spacing" textLength="163.7275" x="340.0417" y="22.9951">Library - ER Diagram</text></g><!--class User--><g class="entity" data-entity="User" data-source-line="13" data-uid="ent0002" id="entity_User"><rect fill="#F1F1F1" height="129.4844" rx="2.5" ry="2.5" style="stroke:#181818;stroke-width:0.5;" width="225.5205" x="7" y="44.2969"/><ellipse cx="99.5552" cy="60.2969" fill="#ADD1B2" rx="11" ry="11" style="stroke:#181818;stroke-width:1;"/><path d="M103.6646,66.2969 L95.9458,66.2969 L95.9458,53.9063 L103.6646,53.9063 L103.6646,56.0625 L98.3989,56.0625 L98.3989,58.7344 L103.1646,58.7344 L103.1646,60.8906 L98.3989,60.8906 L98.3989,64.1406 L103.6646,64.1406 L103.6646,66.2969 Z " fill="#000000"/><text fill="#000000" font-family="sans-serif" font-size="14" lengthAdjust="spacing" textLength="31.9102" x="120.0552" y="65.1436">User</text><line style="stroke:#181818;stroke-width:0.5;" x1="8" x2="231.5205" y1="76.2969" y2="76.2969"/><ellipse cx="18" cy="89.9453" fill="#000000" rx="3" ry="3" style="stroke:#000000;stroke-width:1;"/><text fill="#000000" font-family="sans-serif" font-size="14" lengthAdjust="spacing" textLength="99.7227" x="27" y="93.292">id : Long &#171;PK&#187;</text><line style="stroke:#181818;stroke-width:1;" x1="8" x2="231.5205" y1="100.5938" y2="100.5938"/><text fill="#000000" font-family="sans-serif" font-size="14" lengthAdjust="spacing" textLength="124.0586" x="13" y="117.5889">firstName : String</text><text fill="#000000" font-family="sans-serif" font-size="14" lengthAdjust="spacing" textLength="121.9531" x="13" y="133.8857">lastName : String</text><text fill="#000000" font-family="sans-serif" font-size="14" lengthAdjust="spacing" textLength="149.9668" x="13" y="150.1826">birthDate : LocalDate</text><text fill="#000000" font-family="sans-serif" font-size="14" lengthAdjust="spacing" textLength="213.5205" x="13" y="166.4795">cardNumber : String &#171;Unique&#187;</text></g><!--class Loan--><g class="entity" data-entity="Loan" data-source-line="22" data-uid="ent0003" id="entity_Loan"><rect fill="#F1F1F1" height="113.1875" rx="2.5" ry="2.5" style="stroke:#181818;stroke-width:0.5;" width="200.6992" x="538.82" y="58.4469"/><ellipse cx="618.0109" cy="74.4469" fill="#ADD1B2" rx="11" ry="11" style="stroke:#181818;stroke-width:1;"/><path d="M622.1203,80.4469 L614.4015,80.4469 L614.4015,68.0562 L622.1203,68.0562 L622.1203,70.2125 L616.8547,70.2125 L616.8547,72.8844 L621.6203,72.8844 L621.6203,75.0406 L616.8547,75.0406 L616.8547,78.2906 L622.1203,78.2906 L622.1203,80.4469 Z " fill="#000000"/><text fill="#000000" font-family="sans-serif" font-size="14" lengthAdjust="spacing" textLength="33.8174" x="638.5109" y="79.2936">Loan</text><line style="stroke:#181818;stroke-width:0.5;" x1="539.82" x2="738.5192" y1="90.4469" y2="90.4469"/><ellipse cx="549.82" cy="104.0953" fill="#000000" rx="3" ry="3" style="stroke:#000000;stroke-width:1;"/><text fill="#000000" font-family="sans-serif" font-size="14" lengthAdjust="spacing" textLength="99.7227" x="558.82" y="107.442">id : Long &#171;PK&#187;</text><line style="stroke:#181818;stroke-width:1;" x1="539.82" x2="738.5192" y1="114.7437" y2="114.7437"/><text fill="#000000" font-family="sans-serif" font-size="14" lengthAdjust="spacing" textLength="146.9795" x="544.82" y="131.7389">loanDate : LocalDate</text><text fill="#000000" font-family="sans-serif" font-size="14" lengthAdjust="spacing" textLength="188.6992" x="544.82" y="148.0357">returnDueDate : LocalDate</text><text fill="#000000" font-family="sans-serif" font-size="14" lengthAdjust="spacing" textLength="160.4326" x="544.82" y="164.3326">returnDate : LocalDate</text></g><!--class Element--><g class="entity" data-entity="Element" data-source-line="30" data-uid="ent0004" id="entity_Element"><rect fill="#F1F1F1" height="113.1875" rx="2.5" ry="2.5" style="stroke:#181818;stroke-width:0.5;" width="149.5459" x="44.99" y="208.4469"/><ellipse cx="86.8028" cy="224.4469" fill="#ADD1B2" rx="11" ry="11" style="stroke:#181818;stroke-width:1;"/><path d="M90.9122,230.4469 L83.1934,230.4469 L83.1934,218.0562 L90.9122,218.0562 L90.9122,220.2125 L85.6465,220.2125 L85.6465,222.8844 L90.4122,222.8844 L90.4122,225.0406 L85.6465,225.0406 L85.6465,228.2906 L90.9122,228.2906 L90.9122,230.4469 Z " fill="#000000"/><text fill="#000000" font-family="sans-serif" font-size="14" lengthAdjust="spacing" textLength="57.9619" x="106.7612" y="229.2936">Element</text><line style="stroke:#181818;stroke-width:0.5;" x1="45.99" x2="193.5359" y1="240.4469" y2="240.4469"/><ellipse cx="55.99" cy="254.0953" fill="#000000" rx="3" ry="3" style="stroke:#000000;stroke-width:1;"/><text fill="#000000" font-family="sans-serif" font-size="14" lengthAdjust="spacing" textLength="123.5459" x="64.99" y="257.442">isbn : String &#171;PK&#187;</text><line style="stroke:#181818;stroke-width:1;" x1="45.99" x2="193.5359" y1="264.7438" y2="264.7438"/><text fill="#000000" font-family="sans-serif" font-size="14" lengthAdjust="spacing" textLength="82.7695" x="50.99" y="281.7389">title : String</text><text fill="#000000" font-family="sans-serif" font-size="14" lengthAdjust="spacing" textLength="63.1025" x="50.99" y="298.0357">year : int</text><text fill="#000000" font-family="sans-serif" font-size="14" lengthAdjust="spacing" textLength="74.1289" x="50.99" y="314.3326">pages : int</text></g><!--class Book--><g class="entity" data-entity="Book" data-source-line="38" data-uid="ent0005" id="entity_Book"><rect fill="#F1F1F1" height="80.5938" rx="2.5" ry="2.5" style="stroke:#181818;stroke-width:0.5;" width="113.5342" x="582.4" y="218.7369"/><ellipse cx="618.4111" cy="234.7369" fill="#ADD1B2" rx="11" ry="11" style="stroke:#181818;stroke-width:1;"/><path d="M622.5205,240.7369 L614.8018,240.7369 L614.8018,228.3463 L622.5205,228.3463 L622.5205,230.5025 L617.2549,230.5025 L617.2549,233.1744 L622.0205,233.1744 L622.0205,235.3306 L617.2549,235.3306 L617.2549,238.5806 L622.5205,238.5806 L622.5205,240.7369 Z " fill="#000000"/><text fill="#000000" font-family="sans-serif" font-size="14" lengthAdjust="spacing" textLength="34.8428" x="637.0803" y="239.5836">Book</text><line style="stroke:#181818;stroke-width:0.5;" x1="583.4" x2="694.9342" y1="250.7369" y2="250.7369"/><text fill="#000000" font-family="sans-serif" font-size="14" lengthAdjust="spacing" textLength="101.5342" x="588.4" y="267.732">author : String</text><text fill="#000000" font-family="sans-serif" font-size="14" lengthAdjust="spacing" textLength="96.1406" x="588.4" y="284.0289">genre : String</text><line style="stroke:#181818;stroke-width:0.5;" x1="583.4" x2="694.9342" y1="291.3306" y2="291.3306"/></g><!--class Magazine--><g class="entity" data-entity="Magazine" data-source-line="43" data-uid="ent0006" id="entity_Magazine"><rect fill="#F1F1F1" height="64.2969" rx="2.5" ry="2.5" style="stroke:#181818;stroke-width:0.5;" width="423.291" x="427.52" y="333.8869"/><ellipse cx="601.4912" cy="349.8869" fill="#ADD1B2" rx="11" ry="11" style="stroke:#181818;stroke-width:1;"/><path d="M605.6006,355.8869 L597.8818,355.8869 L597.8818,343.4963 L605.6006,343.4963 L605.6006,345.6525 L600.3349,345.6525 L600.3349,348.3244 L605.1006,348.3244 L605.1006,350.4806 L600.3349,350.4806 L600.3349,353.7306 L605.6006,353.7306 L605.6006,355.8869 Z " fill="#000000"/><text fill="#000000" font-family="sans-serif" font-size="14" lengthAdjust="spacing" textLength="66.8486" x="621.9912" y="354.7336">Magazine</text><line style="stroke:#181818;stroke-width:0.5;" x1="428.52" x2="849.811" y1="365.8869" y2="365.8869"/><text fill="#000000" font-family="sans-serif" font-size="14" lengthAdjust="spacing" textLength="411.291" x="433.52" y="382.882">periodicity : Enum (SETTIMANALE, MENSILE, SEMESTRALE)</text><line style="stroke:#181818;stroke-width:0.5;" x1="428.52" x2="849.811" y1="390.1838" y2="390.1838"/></g><!--link User to Loan--><g class="link" data-entity-1="User" data-entity-2="Loan" data-source-line="49" data-uid="lnk7" id="link_User_Loan"><path codeLine="49" d="M240.7095,110.43 C331.7895,111.49 433.1212,112.6572 520.6612,113.6772" fill="none" id="User-Loan" style="stroke:#181818;stroke-width:1;"/><line style="stroke:#181818;stroke-width:1;" x1="236.6632" x2="236.7563" y1="114.3832" y2="106.3837"/><line style="stroke:#181818;stroke-width:1;" x1="239.663" x2="239.7561" y1="114.4181" y2="106.4186"/><line style="stroke:#181818;stroke-width:1;" x1="240.7095" x2="232.71" y1="110.43" y2="110.3369"/><line style="stroke:#181818;stroke-width:1;" x1="530.6605" x2="538.7299" y1="113.7937" y2="107.8873"/><line style="stroke:#181818;stroke-width:1;" x1="530.6605" x2="538.5901" y1="113.7937" y2="119.8865"/><line style="stroke:#181818;stroke-width:1;" x1="530.6605" x2="538.66" y1="113.7937" y2="113.8869"/><ellipse cx="524.661" cy="113.7238" fill="none" rx="4" ry="4" style="stroke:#181818;stroke-width:1;"/><text fill="#000000" font-family="sans-serif" font-size="13" lengthAdjust="spacing" textLength="108.3164" x="276.02" y="107.1038">1 user &#8594; N loans</text></g><!--link Element to Loan--><g class="link" data-entity-1="Element" data-entity-2="Loan" data-source-line="50" data-uid="lnk8" id="link_Element_Loan"><path codeLine="50" d="M202.5736,241.3191 C292.8336,215.1491 420.6519,178.0991 521.1619,148.9591" fill="none" id="Element-Loan" style="stroke:#181818;stroke-width:1;"/><line style="stroke:#181818;stroke-width:1;" x1="199.8457" x2="197.6179" y1="246.2748" y2="238.5912"/><line style="stroke:#181818;stroke-width:1;" x1="202.727" x2="200.4992" y1="245.4394" y2="237.7558"/><line style="stroke:#181818;stroke-width:1;" x1="202.5736" x2="194.89" y1="241.3191" y2="243.5469"/><line style="stroke:#181818;stroke-width:1;" x1="530.7664" x2="536.7793" y1="146.1745" y2="138.1842"/><line style="stroke:#181818;stroke-width:1;" x1="530.7664" x2="540.1207" y1="146.1745" y2="149.7096"/><line style="stroke:#181818;stroke-width:1;" x1="530.7664" x2="538.45" y1="146.1745" y2="143.9469"/><ellipse cx="525.0037" cy="147.8452" fill="none" rx="4" ry="4" style="stroke:#181818;stroke-width:1;"/><text fill="#000000" font-family="sans-serif" font-size="13" lengthAdjust="spacing" textLength="133.5674" x="263.52" y="182.1038">1 element &#8594; N loans</text></g><!--reverse link Element to Book--><g class="link" data-entity-1="Element" data-entity-2="Book" data-source-line="51" data-uid="lnk9" id="link_Element_Book"><path codeLine="51" d="M212.8888,263.9688 C317.5388,262.7588 488.26,260.7769 582.07,259.6869" fill="none" id="Element-backto-Book" style="stroke:#181818;stroke-width:1;"/><polygon fill="none" points="194.89,264.1769,212.9582,269.9684,212.8194,257.9692,194.89,264.1769" style="stroke:#181818;stroke-width:1;"/><text fill="#000000" font-family="sans-serif" font-size="13" lengthAdjust="spacing" textLength="73.4932" x="293.52" y="258.1038">inheritance</text></g><!--reverse link Element to Magazine--><g class="link" data-entity-1="Element" data-entity-2="Magazine" data-source-line="52" data-uid="lnk10" id="link_Element_Magazine"><path codeLine="52" d="M212.5564,282.9564 C284.3064,296.9664 377.89,315.2369 471,333.4069" fill="none" id="Element-backto-Magazine" style="stroke:#181818;stroke-width:1;"/><polygon fill="none" points="194.89,279.5069,211.4065,288.8452,213.7062,277.0676,194.89,279.5069" style="stroke:#181818;stroke-width:1;"/><text fill="#000000" font-family="sans-serif" font-size="13" lengthAdjust="spacing" textLength="73.4932" x="293.52" y="291.1038">inheritance</text></g><!--SRC=[bPB1RjD048Rl-nIZS2WW8f5AI3IAAYLa8omSKyNk0spiYJEAlHl6wqEQzie3z15v4dPT1zpWWjZJUFv_nj_EZYLR88IqPiK7689SmPnKpge48GhSMB06cFAjXOmOKqj62r7jIE-LDw6sP0zm500pbUvoDhNEFfd2CBnQp1To8RrYE4DkivTN7z_FhbnszMHbZGoZ3ownCDh6T8SmkXGFGbp0iEU0Z98W2MJSgugMPt1R8Gz0LU231k-u8Ioo1tXB6OmXD3g7oUJco_MrqrpXRyE6kBAHAj7POikayuvOg9UrDR7TpfN5fd-g2Xztz5Hn5jNbsW6TgXt2hQPlDJeCT-KJVMYKRkXzy7_qXQlu2mEZhLdFQ_otvzpGuPC5bYvk4DluZB9Qw-ub-qXjitezSpoWyXCYRJl9lSgnQhCTafankmR31yyOL6stXllwvwYvy-DEjwNArHrfR3gUFfvrtIEJoIZrzZ58NPVmEfP94YodqJIKxs0fepZmGIoNCavMBldcfMs6bGodIV0rYZy7DxqBBIv4iy3ktDyFX-O8JolXpnW68wYz-kFx8qJDorS3SNgFVZ-sQc_9n9LuPpFBjeJqrbtPAftYdyPV8pep_WG0]--></g></svg>